# xmcd
#
# Track frame offsets:
# 150
# 22525
# 37483
# 55360
# 67935
# 79000
# 87910
# 101875
# 113835
# 125860
# 141160
# 155773
# 176773
# 191735
# 210518
# 224585
# 234348
# 244330
# 249335
# 265023
#
# Disc length: 3697 seconds
#
#
# Revision: 0
# Processed by: cddbd v1.5.1PL0 Copyright (c) Steve Scherf et al.
# Submitted via: FreeRIP 2.942 
#
DISCID=260e6f14
DTITLE=Various Artist - Christmas Magic - CD1
DYEAR=1900
DGENRE=Christmas
TTITLE0=Ricky Skaggs - O Come All Ye Faithful
TTITLE1=Larry Gatlin and The Gatlin Brothers Band - Sweet Baby Jesus
TTITLE2=Rosanne Cash - It Came Upon A Midnight Clear
TTITLE3=Roy Orbison - Pretty Paper
TTITLE4=George Jones and Gene Watson - Silver Bells
TTITLE5=Loretta Lynn - Frosty The Snowman
TTITLE6=Mike Reid -  O Come, O Come Emmanuel
TTITLE7=Vern Gosdin - Joy To The World
TTITLE8=Tammy Wynette - White Christmas
TTITLE9=Chet Atkins - Do You Hear What I Hear?
TTITLE10=Crystal Gayle - The Christmas Song (Chestnuts Roasting On An Open Fire)
TTITLE11=Johnny Cash - The Christmas Guest
TTITLE12=Hank Williams Jr. - Little Drummer Boy
TTITLE13=Shelby Lynne - O Holy Night
TTITLE14=Sawyer Brown - Please Come Home For Christmas
TTITLE15=Slim Whitman - Winter Wonderland
TTITLE16=Sweet Hearts Of Rodeo - Jingle Bell Rock
TTITLE17=Gary Morrys - We Three Kings Of Orient Are
TTITLE18=Charlie Daniels - Little Folks
TTITLE19=The Statler Brothers - Brahms' Bethlehem Lullaby
EXTD=
EXTT0=
EXTT1=
EXTT2=
EXTT3=
EXTT4=
EXTT5=
EXTT6=
EXTT7=
EXTT8=
EXTT9=
EXTT10=
EXTT11=
EXTT12=
EXTT13=
EXTT14=
EXTT15=
EXTT16=
EXTT17=
EXTT18=
EXTT19=
PLAYORDER=
